<svg width="28" height="28" viewBox="0 0 28 28" fill="none" xmlns="http://www.w3.org/2000/svg">
<path fill-rule="evenodd" clip-rule="evenodd" d="M12.8055 14C12.8055 13.3403 13.3403 12.8056 14 12.8056C14.6597 12.8056 15.1944 13.3403 15.1944 14C15.1944 14.6597 14.6597 15.1944 14 15.1944C13.3403 15.1944 12.8055 14.6597 12.8055 14Z" fill="#A1A1AA"/>
<path fill-rule="evenodd" clip-rule="evenodd" d="M7.69446 14C7.69446 13.3403 8.22923 12.8056 8.8889 12.8056C9.54858 12.8056 10.0833 13.3403 10.0833 14C10.0833 14.6597 9.54858 15.1944 8.8889 15.1944C8.22923 15.1944 7.69446 14.6597 7.69446 14Z" fill="#A1A1AA"/>
<path fill-rule="evenodd" clip-rule="evenodd" d="M17.9167 14C17.9167 13.3403 18.4515 12.8056 19.1111 12.8056C19.7708 12.8056 20.3056 13.3403 20.3056 14C20.3056 14.6597 19.7708 15.1944 19.1111 15.1944C18.4515 15.1944 17.9167 14.6597 17.9167 14Z" fill="#A1A1AA"/>
</svg>
